<svg xmlns="http://www.w3.org/2000/svg" viewBox="6507.999 536.001 246 79.999">
  <defs>
    <style>
      .cls-1 {
        fill: #ab5151;
      }

      .cls-2, .cls-3 {
        stroke: none;
      }

      .cls-3 {
        fill: #f3db00;
      }
    </style>
  </defs>
  <g id="Subtraction_15" data-name="Subtraction 15" class="cls-1" transform="translate(12429.857 591)">
    <path class="cls-2" d="M -5682.85791015625 24.49930953979492 L -5914.8583984375 24.49930953979492 C -5918.4423828125 24.49930953979492 -5921.3583984375 21.58396530151367 -5921.3583984375 18.00052833557129 L -5921.3583984375 -0.5094407200813293 L -5907.36279296875 -14.50509738922119 L -5907.00927734375 -14.8586597442627 L -5907.36279296875 -15.2122220993042 L -5921.3583984375 -29.20787811279297 L -5921.3583984375 -47.99940872192383 C -5921.3583984375 -51.58369064331055 -5918.4423828125 -54.49969100952148 -5914.8583984375 -54.49969100952148 L -5682.85791015625 -54.49969100952148 C -5679.27392578125 -54.49969100952148 -5676.35791015625 -51.58369064331055 -5676.35791015625 -47.99940872192383 L -5676.35791015625 -29.2064094543457 L -5690.353515625 -15.21072196960449 L -5690.70703125 -14.85715961456299 L -5690.353515625 -14.50359725952148 L -5676.35791015625 -0.5079407095909119 L -5676.35791015625 18.00052833557129 C -5676.35791015625 21.58396530151367 -5679.27392578125 24.49930953979492 -5682.85791015625 24.49930953979492 Z"/>
    <path class="cls-3" d="M -5682.85791015625 23.99930953979492 C -5679.54931640625 23.99930953979492 -5676.85791015625 21.30827713012695 -5676.85791015625 18.00052833557129 L -5676.85791015625 -0.3008782267570496 L -5690.70703125 -14.15006542205811 L -5691.4140625 -14.85715961456299 L -5690.70703125 -15.56425285339355 L -5676.85791015625 -29.41347122192383 L -5676.85791015625 -47.99940872192383 C -5676.85791015625 -51.3079719543457 -5679.54931640625 -53.99969100952148 -5682.85791015625 -53.99969100952148 L -5914.8583984375 -53.99969100952148 C -5918.1669921875 -53.99969100952148 -5920.8583984375 -51.3079719543457 -5920.8583984375 -47.99940872192383 L -5920.8583984375 -29.41493988037109 L -5907.00927734375 -15.56575298309326 L -5906.30224609375 -14.8586597442627 L -5907.00927734375 -14.15156555175781 L -5920.8583984375 -0.302378237247467 L -5920.8583984375 18.00052833557129 C -5920.8583984375 21.30827713012695 -5918.1669921875 23.99930953979492 -5914.8583984375 23.99930953979492 L -5682.85791015625 23.99930953979492 M -5682.85791015625 24.99930953979492 L -5914.8583984375 24.99930953979492 C -5918.71826171875 24.99930953979492 -5921.8583984375 21.85968399047852 -5921.8583984375 18.00052833557129 L -5921.8583984375 -0.716565728187561 L -5907.71630859375 -14.8586597442627 L -5921.8583984375 -29.00075340270996 L -5921.8583984375 -47.99940872192383 C -5921.8583984375 -51.85937881469727 -5918.71826171875 -54.99969100952148 -5914.8583984375 -54.99969100952148 L -5682.85791015625 -54.99969100952148 C -5678.998046875 -54.99969100952148 -5675.85791015625 -51.85937881469727 -5675.85791015625 -47.99940872192383 L -5675.85791015625 -28.9992847442627 L -5690 -14.85715961456299 L -5675.85791015625 -0.7150657176971436 L -5675.85791015625 18.00052833557129 C -5675.85791015625 21.85968399047852 -5678.998046875 24.99930953979492 -5682.85791015625 24.99930953979492 Z"/>
  </g>
</svg>
